<mxfile host="app.diagrams.net" modified="2023-10-03T11:48:01.662Z" agent="Mozilla/5.0 (Windows NT 10.0; Win64; x64) AppleWebKit/537.36 (KHTML, like Gecko) Chrome/117.0.0.0 Safari/537.36" etag="B2nxjRCSKFDXY3D0pFxR" version="22.0.2" type="device">
  <diagram id="C5RBs43oDa-KdzZeNtuy" name="Page-1">
    <mxGraphModel dx="522" dy="569" grid="1" gridSize="10" guides="1" tooltips="1" connect="1" arrows="1" fold="1" page="1" pageScale="1" pageWidth="827" pageHeight="1169" math="0" shadow="0">
      <root>
        <mxCell id="WIyWlLk6GJQsqaUBKTNV-0" />
        <mxCell id="WIyWlLk6GJQsqaUBKTNV-1" parent="WIyWlLk6GJQsqaUBKTNV-0" />
        <mxCell id="wmqo_a2wTi21p9rdOg_z-5" value="Yes" style="edgeStyle=orthogonalEdgeStyle;rounded=0;orthogonalLoop=1;jettySize=auto;html=1;entryX=0.5;entryY=0;entryDx=0;entryDy=0;" edge="1" parent="WIyWlLk6GJQsqaUBKTNV-1" source="wmqo_a2wTi21p9rdOg_z-3" target="wmqo_a2wTi21p9rdOg_z-4">
          <mxGeometry relative="1" as="geometry" />
        </mxCell>
        <mxCell id="wmqo_a2wTi21p9rdOg_z-6" value="No" style="edgeStyle=orthogonalEdgeStyle;rounded=0;orthogonalLoop=1;jettySize=auto;html=1;exitX=1;exitY=0.5;exitDx=0;exitDy=0;" edge="1" parent="WIyWlLk6GJQsqaUBKTNV-1" source="wmqo_a2wTi21p9rdOg_z-3">
          <mxGeometry x="-0.6122" relative="1" as="geometry">
            <mxPoint x="440" y="100" as="targetPoint" />
            <mxPoint as="offset" />
          </mxGeometry>
        </mxCell>
        <mxCell id="wmqo_a2wTi21p9rdOg_z-3" value="Do you have the real&lt;br&gt;&amp;nbsp;lengths of the three&lt;br&gt;&amp;nbsp;sides, a, b, and c ?" style="rhombus;whiteSpace=wrap;html=1;" vertex="1" parent="WIyWlLk6GJQsqaUBKTNV-1">
          <mxGeometry x="205" y="110" width="150" height="170" as="geometry" />
        </mxCell>
        <mxCell id="wmqo_a2wTi21p9rdOg_z-10" style="edgeStyle=orthogonalEdgeStyle;rounded=0;orthogonalLoop=1;jettySize=auto;html=1;entryX=0.5;entryY=0;entryDx=0;entryDy=0;" edge="1" parent="WIyWlLk6GJQsqaUBKTNV-1" source="wmqo_a2wTi21p9rdOg_z-4" target="wmqo_a2wTi21p9rdOg_z-9">
          <mxGeometry relative="1" as="geometry" />
        </mxCell>
        <mxCell id="wmqo_a2wTi21p9rdOg_z-4" value="Work out S = (a+b+c)/2" style="rounded=1;whiteSpace=wrap;html=1;" vertex="1" parent="WIyWlLk6GJQsqaUBKTNV-1">
          <mxGeometry x="220" y="320" width="120" height="60" as="geometry" />
        </mxCell>
        <mxCell id="wmqo_a2wTi21p9rdOg_z-8" style="edgeStyle=orthogonalEdgeStyle;rounded=0;orthogonalLoop=1;jettySize=auto;html=1;entryX=0.5;entryY=0;entryDx=0;entryDy=0;" edge="1" parent="WIyWlLk6GJQsqaUBKTNV-1" source="wmqo_a2wTi21p9rdOg_z-7" target="wmqo_a2wTi21p9rdOg_z-3">
          <mxGeometry relative="1" as="geometry" />
        </mxCell>
        <mxCell id="wmqo_a2wTi21p9rdOg_z-7" value="Work out the three real number values of a, b, and c" style="rounded=1;whiteSpace=wrap;html=1;absoluteArcSize=1;arcSize=14;strokeWidth=2;" vertex="1" parent="WIyWlLk6GJQsqaUBKTNV-1">
          <mxGeometry x="390" y="30" width="100" height="70" as="geometry" />
        </mxCell>
        <mxCell id="wmqo_a2wTi21p9rdOg_z-9" value="Area of triangle = &lt;br&gt;sqrt(S(S-a)(S-b)(S-c))" style="rounded=1;whiteSpace=wrap;html=1;absoluteArcSize=1;arcSize=14;strokeWidth=2;" vertex="1" parent="WIyWlLk6GJQsqaUBKTNV-1">
          <mxGeometry x="190" y="420" width="180" height="100" as="geometry" />
        </mxCell>
      </root>
    </mxGraphModel>
  </diagram>
</mxfile>
